# xmcd CD database file
#
# Track frame offsets:
#	150
#	42100
#	74346
#	109817
#	158808
#	184261
#	215333
#	240563
#	256796
#	293871
#
# Disc length: 4267 seconds
#
# Revision: 0
# Processed by: cddbd v1.5.2PL0 Copyright (c) Steve Scherf et al.
# Submitted via: CDex 1.51
#
DISCID=8b10a90a
DTITLE=Asher Quinn - The Songs Of Asher Quinn [CD2)
DYEAR=2010
DGENRE=New Age
TTITLE0=Promised Land
TTITLE1=Amadora
TTITLE2=Rashani
TTITLE3=Red Man's Love
TTITLE4=Talitha Cumi
TTITLE5=In Love
TTITLE6=Kitiana
TTITLE7=First Love
TTITLE8=Mary Moon
TTITLE9=Sonatina
EXTD=YEAR: 2010
EXTT0=
EXTT1=
EXTT2=
EXTT3=
EXTT4=
EXTT5=
EXTT6=
EXTT7=
EXTT8=
EXTT9=
PLAYORDER=
